<svg width="147" height="90" viewBox="0 0 147 90" fill="none" xmlns="http://www.w3.org/2000/svg">
<g clip-path="url(#clip0_207_315)">
<path d="M2.344 90C1.91733 90 1.53333 89.872 1.192 89.616C0.936001 89.2747 0.808001 88.8907 0.808001 88.464V1.93603C0.808001 1.50936 0.936001 1.16803 1.192 0.912025C1.53333 0.570691 1.91733 0.400024 2.344 0.400024H17.32C17.7467 0.400024 18.088 0.570691 18.344 0.912025C18.6853 1.16803 18.856 1.50936 18.856 1.93603V37.776C18.856 38.032 18.9413 38.2027 19.112 38.288C19.2827 38.288 19.4533 38.2027 19.624 38.032L49.192 1.29603C49.704 0.698692 50.344 0.400024 51.112 0.400024H68.008C68.6907 0.400024 69.1173 0.613357 69.288 1.04002C69.4587 1.38136 69.3733 1.80802 69.032 2.32002L40.488 38.8C40.232 39.1413 40.1893 39.44 40.36 39.696L70.568 88.208C70.7387 88.72 70.824 89.0187 70.824 89.104C70.824 89.7013 70.3973 90 69.544 90H52.648C51.7947 90 51.1973 89.6587 50.856 88.976L28.072 52.112C27.9867 51.9413 27.8587 51.856 27.688 51.856C27.5173 51.856 27.3467 51.9413 27.176 52.112L19.112 62.224C18.9413 62.5653 18.856 62.8213 18.856 62.992V88.464C18.856 88.8907 18.6853 89.2747 18.344 89.616C18.088 89.872 17.7467 90 17.32 90H2.344ZM134.053 43.28C133.541 43.536 133.541 43.792 134.053 44.048C142.16 48.2293 146.213 55.184 146.213 64.912C146.213 73.1893 143.397 79.4613 137.765 83.728C132.133 87.9093 124.752 90 115.621 90H82.469C82.0423 90 81.6583 89.872 81.317 89.616C81.061 89.2747 80.933 88.8907 80.933 88.464V1.93603C80.933 1.50936 81.061 1.16803 81.317 0.912025C81.6583 0.570691 82.0423 0.400024 82.469 0.400024H114.597C134.821 0.400024 144.933 8.59203 144.933 24.976C144.933 33.5093 141.306 39.6107 134.053 43.28ZM99.621 15.888C99.1943 15.888 98.981 16.1013 98.981 16.528V36.496C98.981 36.9227 99.1943 37.136 99.621 37.136H114.597C118.608 37.136 121.722 36.1973 123.941 34.32C126.16 32.4427 127.269 29.8827 127.269 26.64C127.269 23.312 126.16 20.7093 123.941 18.832C121.722 16.8693 118.608 15.888 114.597 15.888H99.621ZM115.621 74.384C119.546 74.384 122.618 73.4027 124.837 71.44C127.056 69.392 128.165 66.6187 128.165 63.12C128.165 59.6213 127.056 56.8907 124.837 54.928C122.618 52.88 119.504 51.856 115.493 51.856H99.621C99.1943 51.856 98.981 52.0693 98.981 52.496V73.744C98.981 74.1707 99.1943 74.384 99.621 74.384H115.621Z" fill="#D0BCFF"/>
</g>
<defs>
<clipPath id="clip0_207_315">
<rect width="147" height="90" fill="white"/>
</clipPath>
</defs>
</svg>
